<?xml version="1.0" standalone="no"?>
<!DOCTYPE svg PUBLIC "-//W3C//DTD SVG 20010904//EN"
 "http://www.w3.org/TR/2001/REC-SVG-20010904/DTD/svg10.dtd">
<svg version="1.0" xmlns="http://www.w3.org/2000/svg"
 width="463.000000pt" height="463.000000pt" viewBox="0 0 463.000000 463.000000"
 preserveAspectRatio="xMidYMid meet">
<metadata>
Created by potrace 1.14, written by Peter Selinger 2001-2017
</metadata>
<g transform="translate(0.000000,463.000000) scale(0.100000,-0.100000)"
fill="#000000" stroke="none">
<path d="M577 4623 c-4 -3 -7 -21 -7 -40 0 -21 -6 -36 -15 -39 -8 -4 -15 -15
-15 -25 0 -15 7 -19 31 -19 29 0 30 -2 27 -37 -3 -33 -7 -38 -30 -41 -16 -2
-28 -7 -28 -13 0 -14 -33 -49 -47 -49 -7 0 -13 -7 -13 -15 0 -8 -4 -15 -10
-15 -5 0 -10 -16 -10 -35 0 -32 -3 -35 -28 -35 -38 0 -52 -17 -52 -61 0 -21
-4 -41 -10 -44 -5 -3 -11 -25 -12 -48 l-1 -42 -7 45 -7 45 -1 -42 c-1 -24 -6
-43 -12 -43 -6 0 -10 -50 -10 -130 l0 -130 -25 0 -24 0 -5 -177 c-3 -98 -9
-243 -15 -323 -28 -413 -36 -609 -33 -847 3 -252 4 -263 23 -263 10 0 19 -4
19 -10 0 -5 -5 -10 -10 -10 -26 0 -250 -108 -250 -120 0 -14 41 -3 105 27 28
12 55 23 62 23 16 0 153 45 228 75 108 42 341 97 535 124 41 6 107 15 145 21
99 15 444 24 425 11 -9 -5 -49 -19 -90 -30 -137 -37 -436 -139 -607 -207 -61
-24 -114 -44 -117 -44 -3 0 -29 -11 -58 -24 -29 -13 -82 -36 -118 -51 -144
-59 -510 -246 -510 -260 0 -8 1 -15 3 -15 2 0 52 22 113 50 60 27 114 50 119
50 20 0 15 -63 -6 -83 -16 -15 -19 -26 -14 -51 3 -17 8 -86 11 -152 2 -81 9
-131 19 -150 8 -16 15 -40 15 -52 0 -15 7 -26 20 -29 24 -7 28 -57 5 -79 -21
-21 -19 -81 2 -92 15 -9 18 -66 32 -566 l15 -556 1222 0 1222 0 6 34 7 34 102
9 c75 8 -91 10 -631 12 -589 1 -739 4 -765 14 -50 22 -96 65 -123 118 l-24 49
2 873 3 872 26 40 c80 123 312 254 481 272 63 6 68 17 14 26 -50 8 -214 76
-262 108 -23 16 -63 52 -88 80 -45 50 -47 55 -42 98 3 25 8 87 11 136 8 112
56 428 95 620 11 50 24 124 30 165 6 41 15 91 20 110 5 19 21 98 35 175 14 77
32 167 39 200 8 33 27 128 41 210 32 174 56 231 118 276 l42 31 190 -6 c105
-3 235 -10 290 -16 157 -15 290 -23 285 -17 -7 7 -173 28 -305 37 -60 4 -166
13 -235 20 -69 6 -160 8 -202 5 -48 -4 -78 -3 -78 3 0 6 7 12 15 16 8 3 15 10
15 16 0 11 -1302 15 -1313 3z m-280 -3475 c-2 -13 -4 -5 -4 17 -1 22 1 32 4
23 2 -10 2 -28 0 -40z"/>
<path d="M3421 4588 c-10 -24 -26 -68 -36 -98 -22 -69 -30 -79 -58 -73 -16 4
-19 3 -12 -5 6 -7 24 -14 40 -17 l30 -6 35 108 c45 139 43 133 30 133 -6 0
-19 -19 -29 -42z"/>
<path d="M4465 4618 c-2 -7 -3 -24 -2 -38 2 -20 -3 -26 -23 -29 -25 -3 -80
-52 -80 -71 0 -5 -4 -10 -10 -10 -5 0 -10 5 -10 10 0 6 -6 10 -12 10 -15 -1
-88 -145 -88 -172 0 -10 5 -18 12 -18 7 0 6 -6 -4 -17 -8 -10 -18 -30 -22 -45
-3 -16 -11 -28 -17 -28 -6 0 -8 -4 -5 -8 3 -5 -9 -26 -26 -47 -30 -36 -31 -38
-13 -51 10 -8 17 -15 14 -17 -2 -1 -16 -9 -31 -16 -17 -9 -32 -28 -39 -50 -6
-20 -18 -47 -26 -60 -10 -16 -13 -37 -10 -63 4 -28 0 -49 -12 -69 -10 -16 -20
-27 -23 -24 -5 5 -14 -16 -52 -110 -15 -39 -38 -112 -90 -290 -81 -274 -93
-319 -107 -395 -6 -36 -18 -85 -25 -110 -7 -25 -18 -72 -24 -105 -7 -33 -16
-78 -21 -100 -14 -63 -48 -288 -65 -425 -40 -329 -49 -433 -74 -830 -11 -179
-24 -395 -30 -480 -6 -85 -19 -294 -30 -465 -11 -171 -23 -352 -26 -403 l-6
-92 571 0 571 0 0 2315 0 2315 -80 0 c-56 0 -82 -4 -85 -12z"/>
<path d="M4347 4564 c-17 -34 -15 -54 3 -54 5 0 12 9 15 20 4 11 11 18 16 15
5 -4 9 -1 9 4 0 6 -6 11 -12 11 -10 0 -10 2 0 9 11 6 10 10 -1 19 -11 9 -17 4
-30 -24z"/>
<path d="M2728 4513 c7 -3 16 -2 19 1 4 3 -2 6 -13 5 -11 0 -14 -3 -6 -6z"/>
<path d="M2805 4500 c22 -5 44 -4 50 1 5 5 -11 9 -40 8 l-50 -1 40 -8z"/>
<path d="M2918 4489 c-9 -6 -7 -9 8 -9 12 0 43 -3 70 -6 33 -5 46 -3 39 3 -13
14 -100 22 -117 12z"/>
<path d="M3115 4450 c84 -24 126 -26 76 -5 -18 9 -59 17 -90 20 l-56 5 70 -20z"/>
<path d="M3435 4370 c27 -12 35 -12 35 0 0 6 -12 10 -27 9 -25 0 -26 -1 -8 -9z"/>
<path d="M3710 4211 c0 -5 5 -13 10 -16 6 -3 10 -2 10 4 0 5 -4 13 -10 16 -5
3 -10 2 -10 -4z"/>
<path d="M3011 3958 c7 -56 -3 -90 -38 -129 -42 -47 -82 -70 -138 -80 -22 -4
-94 -17 -160 -29 -66 -11 -129 -25 -140 -29 -11 -5 -47 -18 -80 -30 -117 -43
-225 -110 -225 -140 0 -5 -3 -11 -7 -13 -12 -5 -83 -95 -83 -105 0 -5 -16 -38
-35 -74 -43 -82 -116 -303 -145 -440 -39 -186 -44 -196 -96 -183 -48 12 -56
49 -44 202 6 75 15 169 20 207 33 241 34 256 19 266 -11 7 -11 9 4 9 13 0 17
9 17 38 0 20 3 55 6 77 6 37 5 38 -8 20 -8 -11 -22 -47 -32 -80 -10 -33 -21
-71 -26 -85 -5 -14 -21 -74 -36 -135 -26 -101 -28 -125 -29 -300 0 -211 11
-272 54 -318 96 -104 505 -192 891 -192 166 0 179 1 247 27 96 36 134 61 223
149 116 113 174 226 219 422 49 209 69 447 53 629 -8 99 -11 110 -42 150 -32
41 -106 98 -128 98 -6 0 -26 8 -44 18 -45 24 -108 45 -115 38 -4 -3 -11 -2
-17 3 -6 5 -28 11 -49 15 -29 5 -38 4 -36 -6z"/>
<path d="M4047 3864 c-4 -4 -7 -14 -7 -23 0 -11 3 -12 11 -4 6 6 10 16 7 23
-2 6 -7 8 -11 4z"/>
<path d="M3731 3724 c0 -11 3 -14 6 -6 3 7 2 16 -1 19 -3 4 -6 -2 -5 -13z"/>
<path d="M3721 3654 c0 -11 3 -14 6 -6 3 7 2 16 -1 19 -3 4 -6 -2 -5 -13z"/>
<path d="M3711 3595 c0 -16 -4 -41 -6 -55 l-6 -25 11 25 c6 13 9 38 7 55 l-4
30 -2 -30z"/>
<path d="M3680 3444 c0 -8 5 -12 10 -9 6 4 8 11 5 16 -9 14 -15 11 -15 -7z"/>
<path d="M3665 3345 c-3 -31 -4 -59 -2 -62 3 -2 9 21 12 52 4 31 5 58 2 61 -2
3 -8 -20 -12 -51z"/>
<path d="M3637 3190 c-4 -14 -6 -38 -6 -55 1 -27 2 -26 10 10 11 45 7 85 -4
45z"/>
<path d="M3602 2977 c-13 -67 -32 -168 -43 -225 -11 -57 -18 -109 -16 -115 2
-7 8 6 12 28 3 22 11 54 15 70 5 17 12 55 16 85 3 30 12 80 19 110 14 59 30
170 24 170 -2 0 -14 -55 -27 -123z"/>
<path d="M3532 2595 c0 -16 2 -22 5 -12 2 9 2 23 0 30 -3 6 -5 -1 -5 -18z"/>
<path d="M3517 2535 c-3 -11 -8 -38 -12 -60 -5 -39 -5 -39 10 8 9 27 14 54 12
60 -2 7 -7 3 -10 -8z"/>
<path d="M3471 2327 c-2 -30 -52 -124 -80 -151 -15 -14 -44 -34 -66 -45 l-40
-19 38 0 c23 0 37 5 37 13 0 7 20 30 45 51 48 42 80 105 72 145 -3 16 -5 18
-6 6z"/>
<path d="M2998 2123 c7 -3 16 -2 19 1 4 3 -2 6 -13 5 -11 0 -14 -3 -6 -6z"/>
<path d="M3078 2113 c7 -3 16 -2 19 1 4 3 -2 6 -13 5 -11 0 -14 -3 -6 -6z"/>
<path d="M3158 2103 c12 -2 30 -2 40 0 9 3 -1 5 -23 4 -22 0 -30 -2 -17 -4z"/>
<path d="M3393 1770 c0 -96 3 -245 7 -330 l6 -155 1 170 c0 94 -3 242 -7 330
l-6 160 -1 -175z"/>
<path d="M2430 1690 c0 -5 7 -7 15 -4 8 4 15 8 15 10 0 2 -7 4 -15 4 -8 0 -15
-4 -15 -10z"/>
<path d="M2557 1633 c-4 -3 -7 -17 -7 -30 0 -27 1 -27 -38 -7 -18 8 -37 12
-44 8 -7 -5 -31 -11 -53 -14 -24 -4 -39 -11 -37 -18 1 -8 -15 -12 -53 -12 -30
0 -55 5 -55 10 0 6 -4 10 -10 10 -5 0 -10 -6 -10 -14 0 -9 -7 -12 -19 -9 -10
3 -21 -2 -24 -10 -3 -8 -21 -18 -39 -22 -54 -10 -88 -26 -88 -41 0 -8 -5 -14
-11 -14 -6 0 -9 -7 -5 -15 5 -14 0 -16 -66 -30 -10 -2 -18 1 -18 6 0 20 -47 7
-77 -21 -36 -34 -43 -36 -43 -15 0 27 -28 16 -39 -15 -7 -22 -16 -30 -35 -30
-38 0 -56 10 -56 32 0 12 -5 17 -12 14 -7 -3 -20 -9 -28 -12 -11 -4 -15 -15
-12 -40 4 -34 -3 -39 -44 -33 -4 0 -10 -5 -14 -11 -14 -23 -30 1 -30 46 0 44
0 44 36 44 21 0 33 4 29 10 -3 6 -22 10 -41 10 -39 0 -36 9 -38 -140 -2 -123
22 -412 34 -424 6 -6 10 -25 10 -42 0 -94 92 -283 163 -336 33 -25 146 -82
182 -92 104 -28 363 -24 585 10 52 8 122 19 155 24 34 5 109 27 168 50 126 49
162 80 199 172 48 119 53 145 53 313 0 165 -16 284 -41 310 -8 7 -14 23 -14
34 0 29 -38 108 -56 115 -8 3 -14 13 -14 23 0 17 -35 98 -53 121 -7 8 -13 9
-16 3 -4 -6 -32 -13 -64 -17 -56 -7 -57 -6 -57 19 0 21 -8 28 -47 41 -26 9
-71 16 -100 16 -40 0 -53 4 -53 15 0 15 -40 21 -53 8z"/>
<path d="M2390 1615 c0 -8 7 -15 15 -15 8 0 15 7 15 15 0 8 -7 15 -15 15 -8 0
-15 -7 -15 -15z"/>
<path d="M1826 1477 c-16 -11 -16 -15 -4 -19 8 -4 20 2 26 13 14 22 4 25 -22
6z"/>
<path d="M1735 1420 c3 -5 8 -10 11 -10 2 0 4 5 4 10 0 6 -5 10 -11 10 -5 0
-7 -4 -4 -10z"/>
<path d="M3292 173 c-17 -17 -45 -37 -61 -44 -16 -7 -27 -17 -25 -21 6 -9 80
39 108 71 30 33 14 29 -22 -6z"/>
</g>
</svg>
